<?xml version="1.0" encoding="UTF-8"?>
<svg width="128pt" height="128pt" version="1.1" viewBox="0 0 128 128" xmlns="http://www.w3.org/2000/svg">
 <defs>
  <clipPath id="b">
   <path d="m23.695 27h67.305v51h-67.305z"/>
  </clipPath>
  <clipPath id="a">
   <path d="m37 50h67.305v51h-67.305z"/>
  </clipPath>
 </defs>
 <path d="m128 64c0 35.348-28.652 64-64 64s-64-28.652-64-64 28.652-64 64-64 64 28.652 64 64z"/>
 <g clip-path="url(#b)">
  <path d="m30.766 42.262v35.184h-5.2656c-0.99609 0-1.8047-0.80469-1.8047-1.8047v-45.402c0-1.5352 1.1445-2.7891 2.7188-2.7891h23.262c1.5664 0 2.7188 1.2461 2.7188 2.7812v2.668h35.965c1 0 1.8047 0.80859 1.8047 1.7969v10.211l-30.703 0.003906v-2.6719c0-1.5312-1.1445-2.7812-2.7227-2.7812l-23.25-0.003906c-1.582 0-2.7227 1.2656-2.7227 2.8086z" fill="#ff001b"/>
 </g>
 <g clip-path="url(#a)">
  <path d="m102.5 56.008h-35.965v-2.668c0-1.5352-1.1523-2.7812-2.7266-2.7812h-23.254c-1.5703 0-2.7188 1.2539-2.7188 2.7891v45.402c0 0.99609 0.80469 1.7969 1.8047 1.7969h62.859c1 0 1.8047-0.80078 1.8047-1.7969v-40.945c0-0.98828-0.80469-1.7969-1.8047-1.7969z" fill="#ff001b"/>
 </g>
</svg>
